<?xml version="1.0" encoding="UTF-8"?>
<svg xmlns="http://www.w3.org/2000/svg" xmlns:xlink="http://www.w3.org/1999/xlink" width="250pt" height="178pt" viewBox="0 0 250 178" version="1.1">
<g id="surface1">
<path style=" stroke:none;fill-rule:nonzero;fill:rgb(0%,0%,100%);fill-opacity:1;" d="M 52.4375 22.527344 C 52.4375 19.933594 50.335938 17.832031 47.742188 17.832031 C 45.148438 17.832031 43.042969 19.933594 43.042969 22.527344 C 43.042969 25.121094 45.148438 27.222656 47.742188 27.222656 C 50.335938 27.222656 52.4375 25.121094 52.4375 22.527344 Z M 52.4375 22.527344 "/>
<path style="fill:none;stroke-width:1;stroke-linecap:butt;stroke-linejoin:miter;stroke:rgb(0%,0%,100%);stroke-opacity:1;stroke-miterlimit:10;" d="M 4.759 0.027 C 4.6965 2.593406 2.594938 4.694969 0.0011875 4.694969 C -2.592562 4.694969 -4.698031 2.593406 -4.698031 -0.00034375 C -4.698031 -2.594094 -2.592562 -4.695656 0.0011875 -4.695656 C 2.594938 -4.695656 4.6965 -2.594094 4.6965 -0.00034375 Z M 4.759 0.027 " transform="matrix(1,0,0,-1,47.741,22.527)"/>
<path style=" stroke:none;fill-rule:nonzero;fill:rgb(0%,0%,100%);fill-opacity:1;" d="M 194.171875 22.527344 C 194.171875 19.933594 192.070312 17.832031 189.476562 17.832031 C 186.882812 17.832031 184.777344 19.933594 184.777344 22.527344 C 184.777344 25.121094 186.882812 27.222656 189.476562 27.222656 C 192.070312 27.222656 194.171875 25.121094 194.171875 22.527344 Z M 194.171875 22.527344 "/>
<path style="fill:none;stroke-width:1;stroke-linecap:butt;stroke-linejoin:miter;stroke:rgb(0%,0%,100%);stroke-opacity:1;stroke-miterlimit:10;" d="M 146.759 0.027 C 146.430875 2.593406 144.329313 4.694969 141.735563 4.694969 C 139.141813 4.694969 137.036344 2.593406 137.036344 -0.00034375 C 137.036344 -2.594094 139.141813 -4.695656 141.735563 -4.695656 C 144.329313 -4.695656 146.430875 -2.594094 146.430875 -0.00034375 Z M 146.759 0.027 " transform="matrix(1,0,0,-1,47.741,22.527)"/>
<path style=" stroke:none;fill-rule:nonzero;fill:rgb(0%,0%,100%);fill-opacity:1;" d="M 244.28125 72.636719 C 244.28125 70.042969 242.179688 67.941406 239.585938 67.941406 C 236.992188 67.941406 234.890625 70.042969 234.890625 72.636719 C 234.890625 75.230469 236.992188 77.332031 239.585938 77.332031 C 242.179688 77.332031 244.28125 75.230469 244.28125 72.636719 Z M 244.28125 72.636719 "/>
<path style="fill:none;stroke-width:1;stroke-linecap:butt;stroke-linejoin:miter;stroke:rgb(0%,0%,100%);stroke-opacity:1;stroke-miterlimit:10;" d="M 196.759 -49.973 C 196.54025 -47.515969 194.438688 -45.414406 191.844938 -45.414406 C 189.251188 -45.414406 187.149625 -47.515969 187.149625 -50.109719 C 187.149625 -52.703469 189.251188 -54.805031 191.844938 -54.805031 C 194.438688 -54.805031 196.54025 -52.703469 196.54025 -50.109719 Z M 196.759 -49.973 " transform="matrix(1,0,0,-1,47.741,22.527)"/>
<path style=" stroke:none;fill-rule:nonzero;fill:rgb(0%,0%,100%);fill-opacity:1;" d="M 194.171875 122.75 C 194.171875 120.15625 192.070312 118.050781 189.476562 118.050781 C 186.882812 118.050781 184.777344 120.15625 184.777344 122.75 C 184.777344 125.34375 186.882812 127.445312 189.476562 127.445312 C 192.070312 127.445312 194.171875 125.34375 194.171875 122.75 Z M 194.171875 122.75 "/>
<path style="fill:none;stroke-width:1;stroke-linecap:butt;stroke-linejoin:miter;stroke:rgb(0%,0%,100%);stroke-opacity:1;stroke-miterlimit:10;" d="M 146.759 -99.973 C 146.430875 -97.62925 144.329313 -95.523781 141.735563 -95.523781 C 139.141813 -95.523781 137.036344 -97.62925 137.036344 -100.223 C 137.036344 -102.81675 139.141813 -104.918313 141.735563 -104.918313 C 144.329313 -104.918313 146.430875 -102.81675 146.430875 -100.223 Z M 146.759 -99.973 " transform="matrix(1,0,0,-1,47.741,22.527)"/>
<path style=" stroke:none;fill-rule:nonzero;fill:rgb(0%,0%,100%);fill-opacity:1;" d="M 52.4375 122.75 C 52.4375 120.15625 50.335938 118.050781 47.742188 118.050781 C 45.148438 118.050781 43.042969 120.15625 43.042969 122.75 C 43.042969 125.34375 45.148438 127.445312 47.742188 127.445312 C 50.335938 127.445312 52.4375 125.34375 52.4375 122.75 Z M 52.4375 122.75 "/>
<path style="fill:none;stroke-width:1;stroke-linecap:butt;stroke-linejoin:miter;stroke:rgb(0%,0%,100%);stroke-opacity:1;stroke-miterlimit:10;" d="M 4.759 -99.973 C 4.6965 -97.62925 2.594938 -95.523781 0.0011875 -95.523781 C -2.592562 -95.523781 -4.698031 -97.62925 -4.698031 -100.223 C -4.698031 -102.81675 -2.592562 -104.918313 0.0011875 -104.918313 C 2.594938 -104.918313 4.6965 -102.81675 4.6965 -100.223 Z M 4.759 -99.973 " transform="matrix(1,0,0,-1,47.741,22.527)"/>
<path style="fill:none;stroke-width:1;stroke-linecap:butt;stroke-linejoin:miter;stroke:rgb(0%,0%,100%);stroke-opacity:1;stroke-miterlimit:10;" d="M 4.759 0.027 L 136.759 0.027 " transform="matrix(1,0,0,-1,47.741,22.527)"/>
<path style="fill:none;stroke-width:1;stroke-linecap:butt;stroke-linejoin:miter;stroke:rgb(0%,0%,100%);stroke-opacity:1;stroke-miterlimit:10;" d="M -0.241 -4.973 L -0.241 -94.973 " transform="matrix(1,0,0,-1,47.741,22.527)"/>
<path style="fill:none;stroke-width:1;stroke-linecap:butt;stroke-linejoin:miter;stroke:rgb(0%,0%,100%);stroke-opacity:1;stroke-miterlimit:10;" d="M 145.759 -3.973 L 188.759 -46.973 " transform="matrix(1,0,0,-1,47.741,22.527)"/>
<path style="fill:none;stroke-width:1;stroke-linecap:butt;stroke-linejoin:miter;stroke:rgb(0%,0%,100%);stroke-opacity:1;stroke-miterlimit:10;" d="M 141.759 -4.973 L 141.759 -94.973 " transform="matrix(1,0,0,-1,47.741,22.527)"/>
<path style="fill:none;stroke-width:1;stroke-linecap:butt;stroke-linejoin:miter;stroke:rgb(0%,0%,100%);stroke-opacity:1;stroke-miterlimit:10;" d="M 137.759 -2.973 L 3.759 -96.973 " transform="matrix(1,0,0,-1,47.741,22.527)"/>
<path style="fill:none;stroke-width:1;stroke-linecap:butt;stroke-linejoin:miter;stroke:rgb(0%,0%,100%);stroke-opacity:1;stroke-miterlimit:10;" d="M 188.759 -53.973 L 145.759 -96.973 " transform="matrix(1,0,0,-1,47.741,22.527)"/>
<path style="fill:none;stroke-width:1;stroke-linecap:butt;stroke-linejoin:miter;stroke:rgb(0%,0%,100%);stroke-opacity:1;stroke-miterlimit:10;" d="M 136.759 -99.973 L 4.759 -99.973 " transform="matrix(1,0,0,-1,47.741,22.527)"/>
<path style=" stroke:none;fill-rule:nonzero;fill:rgb(100%,0%,0%);fill-opacity:1;" d="M 99.683594 55.933594 C 99.683594 53.339844 97.578125 51.238281 94.984375 51.238281 C 92.390625 51.238281 90.289062 53.339844 90.289062 55.933594 C 90.289062 58.527344 92.390625 60.628906 94.984375 60.628906 C 97.578125 60.628906 99.683594 58.527344 99.683594 55.933594 Z M 99.683594 55.933594 "/>
<path style="fill:none;stroke-width:1;stroke-linecap:butt;stroke-linejoin:miter;stroke:rgb(100%,0%,0%);stroke-opacity:1;stroke-miterlimit:10;" d="M 51.759 -32.973 C 51.942594 -30.812844 49.837125 -28.711281 47.243375 -28.711281 C 44.649625 -28.711281 42.548063 -30.812844 42.548063 -33.406594 C 42.548063 -36.000344 44.649625 -38.101906 47.243375 -38.101906 C 49.837125 -38.101906 51.942594 -36.000344 51.942594 -33.406594 Z M 51.759 -32.973 " transform="matrix(1,0,0,-1,47.741,22.527)"/>
<path style=" stroke:none;fill-rule:nonzero;fill:rgb(100%,0%,0%);fill-opacity:1;" d="M 146.925781 89.339844 C 146.925781 86.746094 144.824219 84.644531 142.230469 84.644531 C 139.636719 84.644531 137.535156 86.746094 137.535156 89.339844 C 137.535156 91.933594 139.636719 94.039062 142.230469 94.039062 C 144.824219 94.039062 146.925781 91.933594 146.925781 89.339844 Z M 146.925781 89.339844 "/>
<path style="fill:none;stroke-width:1;stroke-linecap:butt;stroke-linejoin:miter;stroke:rgb(100%,0%,0%);stroke-opacity:1;stroke-miterlimit:10;" d="M 98.759 -66.973 C 99.184781 -64.219094 97.083219 -62.117531 94.489469 -62.117531 C 91.895719 -62.117531 89.794156 -64.219094 89.794156 -66.812844 C 89.794156 -69.406594 91.895719 -71.512063 94.489469 -71.512063 C 97.083219 -71.512063 99.184781 -69.406594 99.184781 -66.812844 Z M 98.759 -66.973 " transform="matrix(1,0,0,-1,47.741,22.527)"/>
<path style=" stroke:none;fill-rule:nonzero;fill:rgb(100%,0%,0%);fill-opacity:1;" d="M 210.875 72.636719 C 210.875 70.042969 208.773438 67.941406 206.179688 67.941406 C 203.585938 67.941406 201.480469 70.042969 201.480469 72.636719 C 201.480469 75.230469 203.585938 77.332031 206.179688 77.332031 C 208.773438 77.332031 210.875 75.230469 210.875 72.636719 Z M 210.875 72.636719 "/>
<path style="fill:none;stroke-width:1;stroke-linecap:butt;stroke-linejoin:miter;stroke:rgb(100%,0%,0%);stroke-opacity:1;stroke-miterlimit:10;" d="M 162.759 -49.973 C 163.134 -47.515969 161.032438 -45.414406 158.438688 -45.414406 C 155.844938 -45.414406 153.739469 -47.515969 153.739469 -50.109719 C 153.739469 -52.703469 155.844938 -54.805031 158.438688 -54.805031 C 161.032438 -54.805031 163.134 -52.703469 163.134 -50.109719 Z M 162.759 -49.973 " transform="matrix(1,0,0,-1,47.741,22.527)"/>
<path style=" stroke:none;fill-rule:nonzero;fill:rgb(100%,0%,0%);fill-opacity:1;" d="M 144.0625 172.859375 C 144.0625 170.265625 141.957031 168.164062 139.363281 168.164062 C 136.769531 168.164062 134.667969 170.265625 134.667969 172.859375 C 134.667969 175.453125 136.769531 177.554688 139.363281 177.554688 C 141.957031 177.554688 144.0625 175.453125 144.0625 172.859375 Z M 144.0625 172.859375 "/>
<path style="fill:none;stroke-width:1;stroke-linecap:butt;stroke-linejoin:miter;stroke:rgb(100%,0%,0%);stroke-opacity:1;stroke-miterlimit:10;" d="M 96.759 -149.973 C 96.3215 -147.738625 94.216031 -145.637063 91.622281 -145.637063 C 89.028531 -145.637063 86.926969 -147.738625 86.926969 -150.332375 C 86.926969 -152.926125 89.028531 -155.027688 91.622281 -155.027688 C 94.216031 -155.027688 96.3215 -152.926125 96.3215 -150.332375 Z M 96.759 -149.973 " transform="matrix(1,0,0,-1,47.741,22.527)"/>
<path style="fill:none;stroke-width:1;stroke-linecap:butt;stroke-linejoin:miter;stroke:rgb(100%,0%,0%);stroke-opacity:1;stroke-dasharray:2.98883,1.99255;stroke-miterlimit:10;" d="M 51.759 -35.973 L 90.759 -63.973 " transform="matrix(1,0,0,-1,47.741,22.527)"/>
<path style="fill:none;stroke-width:1;stroke-linecap:butt;stroke-linejoin:miter;stroke:rgb(100%,0%,0%);stroke-opacity:1;stroke-dasharray:2.98883,1.99255;stroke-miterlimit:10;" d="M 44.759 -28.973 C -56.006625 145.429344 -111.729281 -186.187844 86.700406 -151.199563 " transform="matrix(1,0,0,-1,47.741,22.527)"/>
<path style="fill:none;stroke-width:1;stroke-linecap:butt;stroke-linejoin:miter;stroke:rgb(100%,0%,0%);stroke-opacity:1;stroke-dasharray:2.98883,1.99255;stroke-miterlimit:10;" d="M 42.759 -35.973 C -59.760531 -95.183938 -30.045687 -128.87925 86.700406 -149.465188 " transform="matrix(1,0,0,-1,47.741,22.527)"/>
<path style="fill:none;stroke-width:1;stroke-linecap:butt;stroke-linejoin:miter;stroke:rgb(100%,0%,0%);stroke-opacity:1;stroke-dasharray:2.98883,1.99255;stroke-miterlimit:10;" d="M 99.759 -65.973 L 153.759 -50.973 " transform="matrix(1,0,0,-1,47.741,22.527)"/>
<path style="fill:none;stroke-width:1;stroke-linecap:butt;stroke-linejoin:miter;stroke:rgb(100%,0%,0%);stroke-opacity:1;stroke-dasharray:2.98883,1.99255;stroke-miterlimit:10;" d="M 94.759 -71.973 L 91.759 -144.973 " transform="matrix(1,0,0,-1,47.741,22.527)"/>
<path style="fill:none;stroke-width:1;stroke-linecap:butt;stroke-linejoin:miter;stroke:rgb(100%,0%,0%);stroke-opacity:1;stroke-dasharray:2.98883,1.99255;stroke-miterlimit:10;" d="M 162.759 -46.973 C 240.532438 7.37075 191.841031 -150.332375 96.618375 -150.332375 " transform="matrix(1,0,0,-1,47.741,22.527)"/>
<path style="fill:none;stroke-width:1;stroke-linecap:butt;stroke-linejoin:miter;stroke:rgb(100%,0%,0%);stroke-opacity:1;stroke-dasharray:2.98883,1.99255;stroke-miterlimit:10;" d="M 158.759 -54.973 C 158.438688 -120.801125 158.055875 -126.152688 96.3215 -148.621438 " transform="matrix(1,0,0,-1,47.741,22.527)"/>
</g>
</svg>
