<?xml version="1.0" encoding="UTF-8"?>
<!DOCTYPE svg PUBLIC "-//W3C//DTD SVG 1.1//EN" "http://www.w3.org/Graphics/SVG/1.1/DTD/svg11.dtd">
<svg version="1.2" width="215.9mm" height="279.4mm" viewBox="0 0 21590 27940" preserveAspectRatio="xMidYMid" fill-rule="evenodd" stroke-width="28.222" stroke-linejoin="round" xmlns="http://www.w3.org/2000/svg" xmlns:ooo="http://xml.openoffice.org/svg/export" xmlns:xlink="http://www.w3.org/1999/xlink" xmlns:presentation="http://sun.com/xmlns/staroffice/presentation" xmlns:smil="http://www.w3.org/2001/SMIL20/" xmlns:anim="urn:oasis:names:tc:opendocument:xmlns:animation:1.0" xml:space="preserve">
 <defs class="ClipPathGroup">
  <clipPath id="presentation_clip_path" clipPathUnits="userSpaceOnUse">
   <rect x="0" y="0" width="21590" height="27940"/>
  </clipPath>
 </defs>
 <defs class="TextShapeIndex">
  <g ooo:slide="id1" ooo:id-list="id3 id4 id5 id6 id7 id8 id9 id10 id11 id12 id13 id14 id15 id16 id17 id18 id19 id20"/>
 </defs>
 <defs class="EmbeddedBulletChars">
  <g id="bullet-char-template(57356)" transform="scale(0.00048828125,-0.00048828125)">
   <path d="M 580,1141 L 1163,571 580,0 -4,571 580,1141 Z"/>
  </g>
  <g id="bullet-char-template(57354)" transform="scale(0.00048828125,-0.00048828125)">
   <path d="M 8,1128 L 1137,1128 1137,0 8,0 8,1128 Z"/>
  </g>
  <g id="bullet-char-template(10146)" transform="scale(0.00048828125,-0.00048828125)">
   <path d="M 174,0 L 602,739 174,1481 1456,739 174,0 Z M 1358,739 L 309,1346 659,739 1358,739 Z"/>
  </g>
  <g id="bullet-char-template(10132)" transform="scale(0.00048828125,-0.00048828125)">
   <path d="M 2015,739 L 1276,0 717,0 1260,543 174,543 174,936 1260,936 717,1481 1274,1481 2015,739 Z"/>
  </g>
  <g id="bullet-char-template(10007)" transform="scale(0.00048828125,-0.00048828125)">
   <path d="M 0,-2 C -7,14 -16,27 -25,37 L 356,567 C 262,823 215,952 215,954 215,979 228,992 255,992 264,992 276,990 289,987 310,991 331,999 354,1012 L 381,999 492,748 772,1049 836,1024 860,1049 C 881,1039 901,1025 922,1006 886,937 835,863 770,784 769,783 710,716 594,584 L 774,223 C 774,196 753,168 711,139 L 727,119 C 717,90 699,76 672,76 641,76 570,178 457,381 L 164,-76 C 142,-110 111,-127 72,-127 30,-127 9,-110 8,-76 1,-67 -2,-52 -2,-32 -2,-23 -1,-13 0,-2 Z"/>
  </g>
  <g id="bullet-char-template(10004)" transform="scale(0.00048828125,-0.00048828125)">
   <path d="M 285,-33 C 182,-33 111,30 74,156 52,228 41,333 41,471 41,549 55,616 82,672 116,743 169,778 240,778 293,778 328,747 346,684 L 369,508 C 377,444 397,411 428,410 L 1163,1116 C 1174,1127 1196,1133 1229,1133 1271,1133 1292,1118 1292,1087 L 1292,965 C 1292,929 1282,901 1262,881 L 442,47 C 390,-6 338,-33 285,-33 Z"/>
  </g>
  <g id="bullet-char-template(9679)" transform="scale(0.00048828125,-0.00048828125)">
   <path d="M 813,0 C 632,0 489,54 383,161 276,268 223,411 223,592 223,773 276,916 383,1023 489,1130 632,1184 813,1184 992,1184 1136,1130 1245,1023 1353,916 1407,772 1407,592 1407,412 1353,268 1245,161 1136,54 992,0 813,0 Z"/>
  </g>
  <g id="bullet-char-template(8226)" transform="scale(0.00048828125,-0.00048828125)">
   <path d="M 346,457 C 273,457 209,483 155,535 101,586 74,649 74,723 74,796 101,859 155,911 209,963 273,989 346,989 419,989 480,963 531,910 582,859 608,796 608,723 608,648 583,586 532,535 482,483 420,457 346,457 Z"/>
  </g>
  <g id="bullet-char-template(8211)" transform="scale(0.00048828125,-0.00048828125)">
   <path d="M -4,459 L 1135,459 1135,606 -4,606 -4,459 Z"/>
  </g>
 </defs>
 <defs class="TextEmbeddedBitmaps"/>
 <g>
  <g id="id2" class="Master_Slide">
   <g id="bg-id2" class="Background"/>
   <g id="bo-id2" class="BackgroundObjects"/>
  </g>
 </g>
 <g class="SlideGroup">
  <g>
   <g id="id1" class="Slide" clip-path="url(#presentation_clip_path)">
    <g class="Page">
     <g class="com.sun.star.drawing.OpenBezierShape">
      <g id="id3">
       <rect class="BoundingBox" stroke="none" fill="none" x="2750" y="5225" width="8498" height="6286"/>
       <path fill="none" stroke="rgb(0,0,0)" d="M 3507,10337 C 3144,10109 3156,9680 2954,9352 2773,9058 2826,8702 2769,8368 2716,8055 2842,7723 2770,7414 2650,6914 3140,6684 3415,6460 3721,6212 4014,5963 4369,5784 4698,5619 5030,5452 5384,5353 5711,5262 6058,5278 6398,5261 6749,5243 7096,5235 7445,5230 7762,5226 8083,5257 8399,5230 8737,5201 9047,5339 9353,5445 9754,5584 9955,5975 10214,6276 10482,6588 10849,6832 10983,7260 11081,7573 11156,7887 11168,8214 11180,8543 11211,8871 11199,9199 11186,9538 11361,9957 11106,10213 10783,10539 10521,10900 10091,11106 9780,11255 9457,11278 9137,11383 8794,11495 8420,11454 8061,11475 7720,11495 7382,11501 7045,11506 6697,11511 6347,11506 5999,11506 5660,11506 5321,11476 4984,11506 4604,11540 4366,11204 4030,11137 3589,11049 3552,10600 3353,10306"/>
      </g>
     </g>
     <g class="com.sun.star.drawing.OpenBezierShape">
      <g id="id4">
       <rect class="BoundingBox" stroke="none" fill="none" x="2396" y="1937" width="13543" height="2579"/>
       <path fill="none" stroke="rgb(0,0,0)" d="M 2397,2615 C 2706,2928 2960,3282 3305,3569 3642,3850 4051,4092 4539,4184 4951,4262 5342,4466 5773,4461 6164,4457 6543,4512 6934,4491 7320,4471 7708,4491 8096,4491 8483,4490 8870,4491 9258,4491 9657,4491 10057,4492 10456,4491 L 11653,4491 C 12052,4491 12452,4505 12850,4491 13239,4477 13671,4596 14012,4399 14392,4180 14917,4115 15065,3661 15189,3284 15615,3050 15756,2676 L 15937,2338 15937,2030 15937,1938"/>
      </g>
     </g>
     <g class="com.sun.star.drawing.OpenBezierShape">
      <g id="id5">
       <rect class="BoundingBox" stroke="none" fill="none" x="2481" y="12793" width="15673" height="2961"/>
       <path fill="none" stroke="rgb(0,0,0)" d="M 2492,15444 C 2452,15042 2534,14625 2738,14275 2939,13931 3156,13536 3569,13413 3970,13293 4345,13090 4769,13044 5129,13005 5482,12906 5845,12890 6357,12867 6870,12802 7384,12829 7938,12858 8490,12782 9045,12798 9556,12813 10071,12783 10583,12798 11055,12811 11531,12750 11999,12890 12387,13006 12774,13132 13168,13229 13574,13329 13991,13397 14398,13506 14728,13595 15071,13670 15414,13660 15770,13650 16110,13722 16460,13752 16778,13780 17253,13718 17383,14183 17479,14528 17645,14849 17813,15167 L 18029,15506 18152,15752"/>
      </g>
     </g>
     <g class="com.sun.star.drawing.OpenBezierShape">
      <g id="id6">
       <rect class="BoundingBox" stroke="none" fill="none" x="13408" y="6487" width="5822" height="5144"/>
       <path fill="none" stroke="rgb(0,0,0)" d="M 17536,6491 C 17136,6491 16735,6485 16337,6491 15947,6496 15555,6468 15167,6522 14809,6571 14452,6611 14091,6645 13750,6677 13390,6917 13414,7291 13437,7638 13409,7989 13414,8337 13419,8665 13386,8997 13445,9322 13516,9709 13739,10066 13752,10460 13766,10876 14196,10909 14460,11045 14796,11218 15154,11245 15506,11321 15850,11396 16202,11332 16552,11383 16897,11433 17249,11462 17598,11475 17917,11486 18252,11464 18552,11598 L 18890,11629 19198,11629 19228,11629"/>
      </g>
     </g>
     <g class="com.sun.star.drawing.ClosedBezierShape">
      <g id="id7">
       <rect class="BoundingBox" stroke="none" fill="none" x="4829" y="3672" width="1390" height="2578"/>
       <path fill="rgb(51,255,153)" stroke="none" d="M 4830,3722 C 5148,3722 5486,3612 5784,3722 6174,3867 5885,4360 5999,4676 6110,4982 6072,5326 6184,5630 6332,6031 5960,6211 5599,6245 5145,6288 4934,5907 5046,5599 L 5046,5291 4984,5291 4830,3722 Z"/>
       <path fill="none" stroke="rgb(255,51,51)" d="M 4830,3722 C 5148,3722 5486,3612 5784,3722 6174,3867 5885,4360 5999,4676 6110,4982 6072,5326 6184,5630 6332,6031 5960,6211 5599,6245 5145,6288 4934,5907 5046,5599 L 5046,5291 4984,5291 4830,3722 Z"/>
      </g>
     </g>
     <g class="com.sun.star.drawing.ClosedBezierShape">
      <g id="id8">
       <rect class="BoundingBox" stroke="none" fill="none" x="8175" y="3059" width="1441" height="3280"/>
       <path fill="rgb(51,255,153)" stroke="none" d="M 8184,6245 C 8183,5917 8184,5588 8184,5261 8184,4943 8203,4623 8184,4307 8162,3932 8170,3495 8430,3230 8676,2980 9176,3010 9445,3292 9710,3572 9580,3944 9599,4276 9618,4603 9600,4933 9599,5261 9597,5605 9509,5953 9322,6245 L 9014,6337 8676,6337 8522,6337 8184,6245 Z"/>
       <path fill="none" stroke="rgb(255,51,51)" d="M 8184,6245 C 8183,5917 8184,5588 8184,5261 8184,4943 8203,4623 8184,4307 8162,3932 8170,3495 8430,3230 8676,2980 9176,3010 9445,3292 9710,3572 9580,3944 9599,4276 9618,4603 9600,4933 9599,5261 9597,5605 9509,5953 9322,6245 L 9014,6337 8676,6337 8522,6337 8184,6245 Z"/>
      </g>
     </g>
     <g class="com.sun.star.drawing.ClosedBezierShape">
      <g id="id9">
       <rect class="BoundingBox" stroke="none" fill="none" x="4759" y="10393" width="1122" height="3600"/>
       <path fill="rgb(51,255,153)" stroke="none" d="M 4984,10645 C 5228,10554 5809,10064 5784,10768 5768,11189 5860,11608 5876,12029 5889,12376 5851,12727 5876,13075 5901,13424 5801,13844 5415,13967 4973,14108 4794,13595 4799,13290 4804,12947 4737,12614 4769,12275 4800,11945 4677,11588 4892,11291 L 4922,11075 4984,10645 Z"/>
       <path fill="none" stroke="rgb(255,51,51)" d="M 4984,10645 C 5228,10554 5809,10064 5784,10768 5768,11189 5860,11608 5876,12029 5889,12376 5851,12727 5876,13075 5901,13424 5801,13844 5415,13967 4973,14108 4794,13595 4799,13290 4804,12947 4737,12614 4769,12275 4800,11945 4677,11588 4892,11291 L 4922,11075 4984,10645 Z"/>
      </g>
     </g>
     <g class="com.sun.star.drawing.ClosedBezierShape">
      <g id="id10">
       <rect class="BoundingBox" stroke="none" fill="none" x="8029" y="10059" width="1308" height="4092"/>
       <path fill="rgb(51,255,153)" stroke="none" d="M 8030,10891 C 8242,10620 8181,10070 8645,10060 9096,10051 9123,10573 9199,10891 9280,11228 9253,11567 9260,11906 9267,12232 9260,12562 9260,12890 9260,13249 9429,13650 9260,13967 8976,14500 8583,13725 8491,13413 8396,13092 8299,12769 8307,12429 8314,12111 8360,11783 8245,11475 L 8122,11137 8030,10983 8030,10891 Z"/>
       <path fill="none" stroke="rgb(255,51,51)" d="M 8030,10891 C 8242,10620 8181,10070 8645,10060 9096,10051 9123,10573 9199,10891 9280,11228 9253,11567 9260,11906 9267,12232 9260,12562 9260,12890 9260,13249 9429,13650 9260,13967 8976,14500 8583,13725 8491,13413 8396,13092 8299,12769 8307,12429 8314,12111 8360,11783 8245,11475 L 8122,11137 8030,10983 8030,10891 Z"/>
      </g>
     </g>
     <g class="com.sun.star.drawing.ClosedBezierShape">
      <g id="id11">
       <rect class="BoundingBox" stroke="none" fill="none" x="9752" y="8313" width="4901" height="1029"/>
       <path fill="rgb(51,255,153)" stroke="none" d="M 10768,8429 C 11162,8309 11565,8377 11968,8337 12355,8299 12748,8337 13137,8337 13464,8337 13811,8441 14121,8337 14561,8190 14976,8797 14275,8952 13917,9031 13594,9131 13260,9229 12923,9328 12587,9282 12245,9322 11919,9360 11587,9327 11260,9322 10942,9316 10623,9342 10306,9291 10011,9242 9352,8617 10091,8522 L 10214,8522 10768,8429 Z"/>
       <path fill="none" stroke="rgb(255,51,51)" d="M 10768,8429 C 11162,8309 11565,8377 11968,8337 12355,8299 12748,8337 13137,8337 13464,8337 13811,8441 14121,8337 14561,8190 14976,8797 14275,8952 13917,9031 13594,9131 13260,9229 12923,9328 12587,9282 12245,9322 11919,9360 11587,9327 11260,9322 10942,9316 10623,9342 10306,9291 10011,9242 9352,8617 10091,8522 L 10214,8522 10768,8429 Z"/>
      </g>
     </g>
     <g class="com.sun.star.drawing.ClosedBezierShape">
      <g id="id12">
       <rect class="BoundingBox" stroke="none" fill="none" x="12582" y="3168" width="2292" height="3956"/>
       <path fill="rgb(51,255,153)" stroke="none" d="M 13598,3722 C 13758,4114 14073,4411 14244,4799 14393,5134 14629,5428 14737,5784 14838,6115 14948,6495 14798,6799 14648,7103 14174,7033 13844,7107 13334,7222 13285,6665 13168,6368 13046,6058 12958,5744 12952,5414 12946,5082 12909,4751 12798,4430 12692,4123 12576,3808 12583,3476 L 12891,3384 13229,3230 13475,3169 13598,3722 Z"/>
       <path fill="none" stroke="rgb(255,51,51)" d="M 13598,3722 C 13758,4114 14073,4411 14244,4799 14393,5134 14629,5428 14737,5784 14838,6115 14948,6495 14798,6799 14648,7103 14174,7033 13844,7107 13334,7222 13285,6665 13168,6368 13046,6058 12958,5744 12952,5414 12946,5082 12909,4751 12798,4430 12692,4123 12576,3808 12583,3476 L 12891,3384 13229,3230 13475,3169 13598,3722 Z"/>
      </g>
     </g>
     <g class="com.sun.star.drawing.ClosedBezierShape">
      <g id="id13">
       <rect class="BoundingBox" stroke="none" fill="none" x="12380" y="10371" width="3222" height="3937"/>
       <path fill="rgb(51,255,153)" stroke="none" d="M 12399,14121 C 12284,13651 12739,13376 12922,13014 13108,12646 13413,12349 13629,11998 13850,11639 14089,11279 14429,11045 14753,10824 14884,10242 15352,10398 15846,10564 15481,11142 15290,11414 15071,11726 14893,12066 14706,12398 14507,12752 14218,13039 13968,13352 13726,13656 13520,14035 13137,14183 L 12829,14275 12522,14306 12399,14121 Z"/>
       <path fill="none" stroke="rgb(255,51,51)" d="M 12399,14121 C 12284,13651 12739,13376 12922,13014 13108,12646 13413,12349 13629,11998 13850,11639 14089,11279 14429,11045 14753,10824 14884,10242 15352,10398 15846,10564 15481,11142 15290,11414 15071,11726 14893,12066 14706,12398 14507,12752 14218,13039 13968,13352 13726,13656 13520,14035 13137,14183 L 12829,14275 12522,14306 12399,14121 Z"/>
      </g>
     </g>
     <g class="com.sun.star.drawing.OpenBezierShape">
      <g id="id14">
       <rect class="BoundingBox" stroke="none" fill="none" x="1493" y="4490" width="2939" height="8751"/>
       <path fill="none" stroke="rgb(102,102,255)" d="M 4030,4491 C 3867,5298 2879,4064 3230,4922 3430,5413 2979,5466 2614,5107 2354,4850 2742,5878 2554,6184 2232,6707 2060,5388 1877,5568 1595,5846 2006,6252 1631,6707 1370,7023 1775,7492 1877,7876 1988,8294 1221,8915 1600,8983 2204,9092 2335,9602 1938,9844 1065,10377 2281,10135 2184,10828 2146,11102 1437,11825 2247,11506 2491,11409 3486,10671 2584,11691 2265,12052 2112,12538 1784,12890 1146,13572 2351,13065 2492,12951 2797,12708 3240,12609 3446,12275 3986,11400 3724,12631 3600,12767 3163,13246 4236,13291 4123,12798 L 4215,12429 4215,12121 4430,12121"/>
      </g>
     </g>
     <g class="com.sun.star.drawing.OpenBezierShape">
      <g id="id15">
       <rect class="BoundingBox" stroke="none" fill="none" x="6215" y="4479" width="1848" height="753"/>
       <path fill="none" stroke="rgb(102,102,255)" d="M 6307,5230 C 6031,4294 6441,5793 6768,4891 7099,3977 6825,5403 7415,5168 7663,5069 7334,4233 7876,4553 L 7876,4861 7938,5199 8061,5045"/>
      </g>
     </g>
     <g class="com.sun.star.drawing.OpenBezierShape">
      <g id="id16">
       <rect class="BoundingBox" stroke="none" fill="none" x="9906" y="4896" width="3171" height="3119"/>
       <path fill="none" stroke="rgb(102,102,255)" d="M 9907,5044 C 10223,5008 10778,4657 10860,5291 10916,5724 9824,6099 10829,6153 11245,6175 11408,5634 11537,5290 11720,4804 12173,4894 12522,4922 13113,4970 12755,5705 12337,5691 12009,5680 11652,5720 11383,5907 11155,6065 11033,6736 11599,6768 11928,6786 12290,6649 12583,6798 13209,7119 12227,7289 12060,7475 11851,7708 11032,7328 11352,7844 11524,8123 11985,7974 12306,7968 L 12614,7968 12922,7968 13075,7906"/>
      </g>
     </g>
     <g class="com.sun.star.drawing.OpenBezierShape">
      <g id="id17">
       <rect class="BoundingBox" stroke="none" fill="none" x="5944" y="11540" width="2156" height="1229"/>
       <path fill="none" stroke="rgb(102,102,255)" d="M 6061,12767 C 6005,12504 5848,12194 6030,11974 6360,11579 6471,12251 6461,12421 6419,13119 6683,12323 6677,12173 6666,11948 6439,11458 6984,11553 7416,11629 7442,12043 7384,12322 7242,13003 7682,12237 7661,12074 7584,11477 8260,12120 8061,12322 L 8061,12544"/>
      </g>
     </g>
     <g class="com.sun.star.drawing.OpenBezierShape">
      <g id="id18">
       <rect class="BoundingBox" stroke="none" fill="none" x="15641" y="2758" width="3052" height="3191"/>
       <path fill="none" stroke="rgb(102,102,255)" d="M 17444,2769 C 17006,2694 16734,3056 16367,3199 16019,3336 15604,3674 15690,4122 15743,4400 15396,4995 16029,4922 16395,4880 16779,4993 17136,4891 17523,4782 17770,4461 18182,4307 18814,4072 18573,4933 18182,4953 17805,4974 17441,5087 17075,5168 16747,5241 16425,5196 16090,5261 15794,5320 15310,6133 16090,5907 16453,5802 16850,5887 17229,5907 17617,5929 18004,5829 18336,5599 18711,5341 18588,4906 18675,4553 18786,4104 18296,3918 17998,3907 17670,3896 17293,4076 17013,3907 16510,3604 17307,3340 17567,3261 L 17875,3230 18244,3230 18521,3015"/>
      </g>
     </g>
     <g class="com.sun.star.drawing.OpenBezierShape">
      <g id="id19">
       <rect class="BoundingBox" stroke="none" fill="none" x="14797" y="11776" width="4956" height="2905"/>
       <path fill="none" stroke="rgb(102,102,255)" d="M 14798,13167 C 15034,12679 15566,12449 15875,12029 16400,11315 16338,12328 16244,12521 15892,13243 16780,12631 16860,12491 17210,11874 17287,12706 17475,13014 17780,13514 18041,12383 18489,12491 18960,12604 18691,13232 18459,13506 18237,13769 18086,14188 18244,14490 18543,15061 18880,14174 19136,13998 19356,13847 19497,12772 19751,13721 L 19751,14029 19751,14336"/>
      </g>
     </g>
     <g class="com.sun.star.drawing.OpenBezierShape">
      <g id="id20">
       <rect class="BoundingBox" stroke="none" fill="none" x="9273" y="9645" width="4363" height="2971"/>
       <path fill="none" stroke="rgb(102,102,255)" d="M 11752,9906 C 11414,10170 11116,10479 10799,10768 10520,11022 10401,11422 9968,11537 9694,11610 9175,11261 9291,11906 9389,12450 9806,12244 10091,12215 10491,12172 10730,11748 11045,11506 11372,11254 11458,10797 11752,10522 12066,10229 12303,9890 12706,9691 13123,9486 13364,10036 13228,10306 13048,10668 12804,11023 12429,11229 12093,11413 11656,11483 11444,11814 11326,12001 10350,12568 11168,12583 11498,12589 11854,12743 12091,12275 12279,11904 12531,11547 12891,11321 13009,11247 13537,10369 13629,11137 13694,11678 13148,11728 12982,12060 L 12737,12398 12552,12614"/>
      </g>
     </g>
    </g>
   </g>
  </g>
 </g>
</svg>